<?xml version="1.0" encoding="utf-8"?>
<!-- Generator: Adobe Illustrator 18.0.0, SVG Export Plug-In . SVG Version: 6.00 Build 0)  -->
<!DOCTYPE svg PUBLIC "-//W3C//DTD SVG 1.1//EN" "http://www.w3.org/Graphics/SVG/1.1/DTD/svg11.dtd">
<svg version="1.1" id="Capa_1" xmlns:sketch="http://www.bohemiancoding.com/sketch/ns"
	 xmlns="http://www.w3.org/2000/svg" xmlns:xlink="http://www.w3.org/1999/xlink" x="0px" y="0px" viewBox="0 0 32 32"
	 enable-background="new 0 0 32 32" xml:space="preserve">
<title>icon 39 clipboard text</title>
<desc>Created with Sketch.</desc>
<g>
	<path fill="#fff" d="M24,5h-1c0,0,0,0,0,0v1c0,1.1-0.9,2-2,2h-9c-1.1,0-2-0.9-2-2V5c0,0,0,0,0,0H9C7.9,5,7,5.9,7,7v21c0,1.1,0.9,2,2,2h15
		c1.1,0,2-0.9,2-2V7C26,5.9,25.1,5,24,5z M23,25H10v-1h13V25z M23,22H10v-1h13V22z M23,19H10v-1h13V19z M23,16H10v-1h13V16z M23,13
		H10v-1h13V13z"/>
	<path  fill="#fff" d="M12,7h9c0.5,0,1-0.4,1-1V5c0-0.6-0.4-1-1-1h-2V3c0-1.1-0.9-2-2-2h-1c-1.1,0-2,0.9-2,2v1h-2c-0.5,0-1,0.4-1,1v1
		C11,6.6,11.4,7,12,7z M16.5,3C16.8,3,17,3.2,17,3.5S16.8,4,16.5,4S16,3.8,16,3.5S16.2,3,16.5,3z"/>
</g>
</svg>
