<?xml version="1.0" encoding="utf-8"?>
<!-- Generator: Adobe Illustrator 17.0.0, SVG Export Plug-In . SVG Version: 6.00 Build 0)  -->
<!DOCTYPE svg PUBLIC "-//W3C//DTD SVG 1.1//EN" "http://www.w3.org/Graphics/SVG/1.1/DTD/svg11.dtd">
<svg version="1.1" id="Capa_1" xmlns="http://www.w3.org/2000/svg" xmlns:xlink="http://www.w3.org/1999/xlink" x="0px" y="0px"
	 width="64px" height="64px" viewBox="0 0 64 64" enable-background="new 0 0 64 64" xml:space="preserve">
<path fill="#ffffff" d="M12.449,47.566l4.213,4.273c1.551,1.573,4.083,1.591,5.656,0.041l9.198-9.068l9.065,9.196
	c1.552,1.573,4.084,1.591,5.657,0.04l4.271-4.21c1.573-1.551,1.592-4.083,0.04-5.657l-9.065-9.196l9.198-9.068
	c1.573-1.551,1.592-4.083,0.04-5.657l-4.211-4.273c-1.552-1.573-4.084-1.591-5.657-0.041l-9.199,9.068l-9.065-9.197
	c-1.552-1.573-4.084-1.591-5.657-0.041l-4.271,4.211c-1.573,1.551-1.592,4.083-0.041,5.657l9.066,9.197L12.49,41.91
	C10.917,43.46,10.898,45.993,12.449,47.566z"/>
</svg>
