<?xml version="1.0" encoding="utf-8"?>
<!-- Generator: Adobe Illustrator 17.0.0, SVG Export Plug-In . SVG Version: 6.00 Build 0)  -->
<!DOCTYPE svg PUBLIC "-//W3C//DTD SVG 1.1//EN" "http://www.w3.org/Graphics/SVG/1.1/DTD/svg11.dtd">
<svg version="1.1" id="Capa_1" xmlns="http://www.w3.org/2000/svg" xmlns:xlink="http://www.w3.org/1999/xlink" x="0px" y="0px"
	 width="64px" height="64px" viewBox="0 0 64 64" enable-background="new 0 0 64 64" xml:space="preserve">
<path fill="#ffffff" d="M12.545,53.357h36.173c2.209,0,4.083-1.789,4.184-3.996l1.22-26.506H6.793l1.523,26.508
	C8.443,51.569,10.336,53.357,12.545,53.357z"/>
<path fill="#ffffff" d="M28.704,16.897c0,0-0.471-0.903-1.051-2.016c-0.581-1.114-2.843-2.017-5.052-2.017h-7.25c-2.209,0-4.549,1.53-5.227,3.418
	l-1.227,3.419h41.896c0,0,0-0.628,0-1.402c0-0.774-1.791-1.402-4-1.402H28.704z"/>
</svg>
