<?xml version="1.0" encoding="utf-8"?>
<!-- Generator: Adobe Illustrator 18.0.0, SVG Export Plug-In . SVG Version: 6.00 Build 0)  -->
<!DOCTYPE svg PUBLIC "-//W3C//DTD SVG 1.1//EN" "http://www.w3.org/Graphics/SVG/1.1/DTD/svg11.dtd">
<svg version="1.1" id="Capa_1" xmlns:sketch="http://www.bohemiancoding.com/sketch/ns"
	 xmlns="http://www.w3.org/2000/svg" xmlns:xlink="http://www.w3.org/1999/xlink" x="0px" y="0px" viewBox="0 0 32 32"
	 enable-background="new 0 0 32 32" xml:space="preserve">
<title>icon 22 eye</title>
<desc>Created with Sketch.</desc>
<g>
	<path fill="#fff" d="M17,13c-1.7,0-3,1.3-3,3s1.3,3,3,3s3-1.3,3-3S18.7,13,17,13z M17,17c-0.6,0-1-0.4-1-1s0.4-1,1-1s1,0.4,1,1S17.6,17,17,17z"
		/>
	<path fill="#fff" d="M17,9C8,9,4,16,4,16s4,7,13,7s13-7,13-7S26,9,17,9z M17,20c-2.2,0-4-1.8-4-4s1.8-4,4-4s4,1.8,4,4S19.2,20,17,20z"/>
</g>
</svg>
