<?xml version="1.0" encoding="utf-8"?>
<!-- Generator: Adobe Illustrator 18.0.0, SVG Export Plug-In . SVG Version: 6.00 Build 0)  -->
<!DOCTYPE svg PUBLIC "-//W3C//DTD SVG 1.1//EN" "http://www.w3.org/Graphics/SVG/1.1/DTD/svg11.dtd">
<svg version="1.1" id="Capa_1" xmlns:sketch="http://www.bohemiancoding.com/sketch/ns"
	 xmlns="http://www.w3.org/2000/svg" xmlns:xlink="http://www.w3.org/1999/xlink" x="0px" y="0px" viewBox="0 0 32 32"
	 enable-background="new 0 0 32 32" xml:space="preserve">
<title>icon 24 key</title>
<desc>Created with Sketch.</desc>
<path  fill="#fff" d="M21.5,3C16.8,3,13,6.8,13,11.5c0,1,0.2,2,0.5,3L3,25v5h5v-3h3v-3h3l4.5-4.5c0.9,0.3,1.9,0.5,3,0.5c4.7,0,8.5-3.8,8.5-8.5
	S26.2,3,21.5,3z M24,12c-1.7,0-3-1.3-3-3s1.3-3,3-3s3,1.3,3,3S25.7,12,24,12z"/>
</svg>
