<?xml version="1.0" encoding="utf-8"?>
<!-- Generator: Adobe Illustrator 17.0.0, SVG Export Plug-In . SVG Version: 6.00 Build 0)  -->
<!DOCTYPE svg PUBLIC "-//W3C//DTD SVG 1.1//EN" "http://www.w3.org/Graphics/SVG/1.1/DTD/svg11.dtd">
<svg version="1.1" id="Capa_1" xmlns="http://www.w3.org/2000/svg" xmlns:xlink="http://www.w3.org/1999/xlink" x="0px" y="0px"
	 width="64px" height="64px" viewBox="0 0 64 64" enable-background="new 0 0 64 64" xml:space="preserve">
<path fill="#ffffff" d="M13.27,41.672h16.09v3.222h0.103c-0.154,0.132-0.307,0.266-0.44,0.429c-0.076,0.093-0.129,0.196-0.194,0.295l-11.058,9.001
	c-1.499,1.22-1.725,3.425-0.505,4.924c0.692,0.85,1.7,1.291,2.716,1.291c0.777,0,1.559-0.257,2.208-0.786l9.689-7.887l9.69,7.887
	c0.649,0.529,1.431,0.786,2.207,0.786c1.017,0,2.025-0.441,2.716-1.291c1.22-1.5,0.994-3.704-0.505-4.924L34.93,45.618
	c-0.065-0.098-0.118-0.201-0.194-0.294c-0.133-0.163-0.286-0.297-0.44-0.429H34.4v-3.222h16.09c2.209,0,4-1.791,4-4V11.373
	c0-2.209-1.791-4-4-4H37.55c0,0,0-0.533,0-1.19c0-0.657-1.791-1.19-4-1.19h-3.34c-2.209,0-4,0.533-4,1.19v1.19H13.27
	c-2.209,0-4,1.791-4,4v26.299C9.27,39.881,11.061,41.672,13.27,41.672z M16.27,14.373h31.221v20.299H16.27V14.373z"/>
<path fill="#ffffff" d="M43.982,16.954c-0.761-0.325-1.643,0.027-1.969,0.79l-4.27,9.988l-5.057-4.397c-0.321-0.279-0.744-0.408-1.167-0.357
	c-0.422,0.052-0.802,0.28-1.046,0.628l-2.587,3.696L24.801,21.2c-0.255-0.505-0.773-0.823-1.339-0.823s-1.083,0.318-1.339,0.823
	l-4.214,8.338c-0.374,0.739-0.077,1.642,0.662,2.016c0.217,0.109,0.448,0.162,0.676,0.162c0.548,0,1.076-0.301,1.34-0.824
	l2.875-5.69l2.876,5.69c0.238,0.471,0.706,0.782,1.232,0.819c0.524,0.036,1.033-0.204,1.336-0.636l3.069-4.384l5.354,4.655
	c0.362,0.315,0.854,0.437,1.32,0.33c0.467-0.107,0.855-0.431,1.044-0.872l5.08-11.882C45.097,18.161,44.744,17.279,43.982,16.954z"
	/>
</svg>
